<?xml version="1.0" standalone="no"?><!DOCTYPE svg PUBLIC "-//W3C//DTD SVG 1.1//EN" "http://www.w3.org/Graphics/SVG/1.1/DTD/svg11.dtd"><svg t="1712491240813" class="icon" viewBox="0 0 3133 1024" version="1.1" xmlns="http://www.w3.org/2000/svg" p-id="2272" xmlns:xlink="http://www.w3.org/1999/xlink" width="611.9140625" height="200"><path d="M506.530202 663.470797c0 21.489459 7.163494 60.37504 10.233446 79.817933 13.303501 3.069952 113.591706 0 132.012032 3.069952l-1.023386 41.955533c-19.44361 0-146.338918-1.023283-218.996736-1.023283-37.863936 0-156.572467 5.116518-192.389632 2.046566l5.116723-38.885683c19.44361 0 105.404928 5.116518 122.801869-15.349555 8.186778-11.25632 5.116723-20.466074 5.116723-74.701312l0-25.582655c0-13.302989 1.023386-36.839014-2.046669-58.328474-9.210163-21.489459-193.413018-256.849818-242.533786-293.688832-14.326886-3.069952-100.288205-12.279706-121.778586-17.396224l-2.046669-35.815731c12.280218-3.069952 108.474982 2.046566 201.599795-1.023283 62.424269-3.069952 202.623181 1.023283 220.020019 1.023283l-4.09344 31.722496c-19.44361 5.116518-106.428314 5.116518-130.988646 13.302989 60.3776 90.05097 155.549082 204.661248 186.249523 248.66345 17.396941-25.582694 166.805914-125.866701 170.899354-162.705715-22.513664-3.069952-99.264819-15.349555-112.568422-15.349555l-7.163494-40.93225c22.513664-3.069952 130.988646 0 186.249523 0 47.074099 0 148.385587 0 178.062746 3.069952l-26.607104 37.862298c-15.350272 0-78.797926 16.372941-101.31159 19.44279-21.490381 7.163187-236.393677 169.8688-248.673894 210.80105-3.070054 15.349555-5.116723 33.769062-5.116723 54.235238L506.530202 663.470797zM1044.811981 578.536346c16.373555 35.815731 41.957274 103.353958 66.517709 143.262822 15.350272 3.069952 54.237491 13.302989 71.634432 16.372941l0 8.18645-1.023386 24.559309c-8.186778 0-83.91465-1.023283-112.568422-1.023283l-114.615105 0 4.09344-35.815731 71.634432-12.279706c-10.233446-21.489459-45.027328-101.30729-53.214106-114.610278-11.256832 0-32.747213 0-56.28416 1.023283-24.560333 3.069952-47.074099 3.069952-58.330931 4.093235-2.046669 7.163187-31.723827 34.792448-36.84055 70.608077 13.303501 5.116518 38.887219 9.209754 55.260877 12.279706l-6.140109 35.815731-97.218169 0c-13.303501 0-83.91465 0-95.171482 3.069952l11.256832-38.885683c15.350272-2.046566 52.190822-13.302989 66.517709-16.372941 20.466995-28.652544 113.591706-214.894285 121.778586-231.267226-12.280218-3.069952-33.770496-13.302989-47.074099-16.372941l-3.070054-25.582694c13.303501 0 61.400986 0 89.031373 3.069952l19.443634 0c19.44361-3.069952 92.101427-2.046566 109.498368-2.046566l-8.186778 26.605978c-15.350272 1.023283-35.817267 8.18647-51.167437 11.25632L1044.811981 578.536346zM969.084109 576.489779c-13.303501-29.67593-33.770496-89.027686-41.957274-114.610278l0-6.139837c-3.070054 3.069952-3.070054 7.163187-6.140109 11.25632-16.373555 40.93225-44.004045 95.167488-47.074099 109.49376l47.074061 0L969.084045 576.489744zM1330.326221 526.347776c0 58.328474 2.046669 77.771264 7.163494 99.260723 17.396941 3.069952 80.844595 7.163187 93.124813 9.209754l0 39.908942-142.245532 0-144.29223 0 2.046669-41.955533c16.373555 0 79.82121-8.18647 93.124813-8.18647 3.070054-27.629261 3.070054-69.584794 3.070054-113.586995l0-55.258535c0-18.419507 0-71.631462-3.070054-91.074253-13.303501-3.069952-74.704486-4.093235-93.124813-7.163187l-4.09344-31.722496c11.256832 3.069952 99.264819-1.023283 143.268864-1.023283l150.432325 0-3.070054 32.745779c-21.490381 3.069952-83.91465 6.139802-97.21815 9.209754-3.070054 14.326272-5.116723 29.67593-5.116723 77.771264l-2.046669 25.582694c19.44361 0 249.697178 0 278.35095-4.093235l0-35.815717c0-46.048768 6.140109-95.167488 1.023386-108.470477-11.256832-3.069952-72.657818-12.279706-92.101427-12.279706l3.070054-33.769062c11.256832 3.069952 70.611046 2.046566 113.591706 2.046566 44.004045 0 111.545037 3.069952 125.871923 0l-5.116723 26.605978c-7.163494 1.023283-24.560333 5.116518-40.93399 9.209754-9.210163 3.069952-19.44361 5.116518-30.700442 7.163187l-2.046669 19.44279c-1.023386 12.279706-2.046669 29.67593 1.023386 49.11872 0 17.396224 1.023386 42.978816 2.046669 63.444992 1.023386 12.279706 1.023386 24.559309 1.023386 37.862298 0 74.701312 5.116723 133.029786 2.046669 136.099738-6.140109 3.069952 47.074099 9.209754 60.3776 9.209754l6.140109 10.233037 0 25.582655-110.521708 0c-27.630387 0-89.031373-4.093235-119.731814-1.023283l-3.070054-37.862298c11.256832 0 73.681101-4.093235 88.007987-7.163187 4.09344-20.466074 1.023386-47.072051 1.023386-70.608077l-1.023386-42.978816c-33.770496 0-250.720563 11.25632-260.95401 11.25632L1330.326221 526.347776zM2285.111091 498.718515c3.070054 123.820032-107.451699 186.241741-256.860672 189.311693l-4.093397 0c-62.424269 0-136.105472-11.25632-201.599795-51.165286-50.144154-29.67593-59.354214-70.608077-59.354214-118.703514 0-98.23744 104.381645-182.148506 265.04745-185.218458l14.326888 0c65.494323 0 126.895309 9.209754 177.03936 49.11872 44.004045 35.815731 52.190822 51.165286 60.3776 91.074253L2285.111091 498.718515zM2201.196442 507.928269c3.070054-102.330573-73.681101-130.983219-172.946022-125.866701l-8.186793 0c-53.214106 3.069952-162.712474 31.722496-162.712474 125.866701 0 84.934451 71.634432 135.076454 170.899354 132.006502 9.210163 0 16.373555 0 24.560333-1.023283 89.031373-7.163187 133.035418-38.885683 144.29225-83.911066L2201.196442 507.928269zM2972.801741 568.303309c4.09344-35.815731 0-292.665549 0-321.318195l-4.09344-54.235238c19.44361 3.069952 14.326886 1.023283 95.171482 9.209754 47.074099 5.116518 53.214106 7.163187 68.564378 7.163187l-19.44361 65.491558c-15.350272 51.165286-69.587763 282.432512-73.681101 298.805453L2972.801741 568.303309zM2911.400755 465.972736c-5.116723 106.423808-129.965363 194.428211-286.537728 197.498061l-12.28019 0c-70.611046 0-130.988646-9.209754-201.599795-55.258522-57.307546-36.839014-84.937933-70.608077-92.101427-136.099738l0-2.046612 0-25.582655c11.256832-99.260723 134.058701-180.101939 305.98144-183.171789l14.326888 0c73.681101 0 143.268864 11.25632 201.599795 56.281805 50.144154 39.908966 60.3776 76.747981 68.564378 120.750182l2.046669 9.209754 0 2.046612L2911.400785 465.972711zM2821.346099 464.949453c8.186778-106.423808-90.054758-151.449293-196.483072-148.379443-7.163494 0-14.326886 1.023283-21.490381 1.023283-62.424269 5.116518-178.062746 38.885683-178.062746 147.356058 0 96.190771 83.91465 149.402726 199.553126 146.332774 8.186778 0 17.396941 0 25.583718-1.023283 99.264819-9.209754 141.222195-45.025485 162.712474-97.214054 1.023386-3.069952 3.070054-6.139802 4.09344-11.25632C2818.275942 494.62528 2820.322611 482.345574 2821.346099 464.949453L2821.346099 464.949453zM3001.455411 635.841536l40.93399 1.023283-10.233446 76.747981-38.887219-3.069952-35.817267-3.069952 0-77.771271L3001.455411 635.841536z" p-id="2273"></path></svg>